<svg width="16" height="12" viewBox="0 0 16 12" fill="none" xmlns="http://www.w3.org/2000/svg">
<path d="M15.0757 1.41176C14.5321 1.65882 13.9462 1.82118 13.3392 1.89882C13.9604 1.52471 14.4404 0.931765 14.6662 0.218823C14.0804 0.571765 13.4309 0.818824 12.7462 0.96C12.1886 0.352941 11.4051 0 10.5157 0C8.85683 0 7.50153 1.35529 7.50153 3.02824C7.50153 3.26824 7.52977 3.50118 7.57918 3.72C5.06624 3.59294 2.82859 2.38588 1.33918 0.557647C1.07801 1.00235 0.92977 1.52471 0.92977 2.07529C0.92977 3.12706 1.45918 4.05882 2.27801 4.58824C1.77683 4.58824 1.31095 4.44706 0.901535 4.23529V4.25647C0.901535 5.72471 1.94624 6.95294 3.32977 7.22824C2.88558 7.34979 2.41925 7.36671 1.96742 7.27765C2.15914 7.8794 2.53462 8.40594 3.04108 8.78325C3.54753 9.16055 4.1595 9.36966 4.79095 9.38118C3.72057 10.2285 2.39377 10.6866 1.02859 10.68C0.788594 10.68 0.548594 10.6659 0.308594 10.6376C1.64977 11.4988 3.24506 12 4.9533 12C10.5157 12 13.5721 7.38353 13.5721 3.38118C13.5721 3.24706 13.5721 3.12 13.5651 2.98588C14.158 2.56235 14.6662 2.02588 15.0757 1.41176V1.41176Z" fill="white"/>
</svg>
