<svg width="16" height="11" viewBox="0 0 16 11" fill="none" xmlns="http://www.w3.org/2000/svg">
<path d="M8.0417 0.714233H8.12344C8.87838 0.716979 12.7036 0.744435 13.735 1.02082C14.0468 1.10517 14.3309 1.26959 14.559 1.49764C14.787 1.72569 14.951 2.00938 15.0346 2.32038C15.1273 2.66814 15.1926 3.12848 15.2366 3.60346L15.2458 3.69864L15.266 3.93658L15.2734 4.03176C15.3331 4.86824 15.3404 5.65163 15.3413 5.82277V5.89141C15.3404 6.06895 15.3322 6.90543 15.266 7.77668L15.2587 7.87278L15.2504 7.96795C15.2045 8.49144 15.1365 9.01126 15.0346 9.39381C14.9513 9.70492 14.7874 9.98875 14.5593 10.2168C14.3312 10.4449 14.0469 10.6093 13.735 10.6934C12.6696 10.9789 8.62031 10.999 8.05915 10.9999H7.92873C7.64494 10.9999 6.47119 10.9945 5.2405 10.9524L5.08437 10.9469L5.00447 10.9432L4.84742 10.9368L4.69037 10.9304C3.67092 10.8855 2.70014 10.8133 2.25287 10.6924C1.94105 10.6084 1.65687 10.4442 1.42879 10.2163C1.2007 9.9884 1.03673 9.70475 0.953296 9.39381C0.851351 9.01218 0.783388 8.49144 0.737467 7.96795L0.730119 7.87186L0.722772 7.77668C0.677445 7.15655 0.652328 6.53512 0.647461 5.91337L0.647461 5.80081C0.649298 5.60404 0.656645 4.92406 0.70624 4.17362L0.712669 4.07935L0.715424 4.03176L0.722772 3.93658L0.742977 3.69864L0.752161 3.60346C0.796246 3.12848 0.861454 2.66723 0.954215 2.32038C1.03751 2.00926 1.20142 1.72543 1.42951 1.49734C1.6576 1.26925 1.94186 1.10492 2.25379 1.02082C2.70106 0.901846 3.67183 0.828631 4.69129 0.782872L4.84742 0.776466L5.00539 0.770975L5.08437 0.768229L5.24142 0.761823C6.11549 0.733795 6.98992 0.718235 7.86444 0.715149H8.0417V0.714233ZM6.52538 3.65196V8.0613L10.3433 5.85755L6.52538 3.65196Z" fill="white"/>
</svg>
