<svg width="14" height="14" viewBox="0 0 14 14" fill="none" xmlns="http://www.w3.org/2000/svg">
<path d="M8.59727 4.65034L3.3251 9.92251L2.98035 11.0985L4.13244 10.7654L9.42211 5.47576L8.59727 4.65034ZM9.49677 3.75084L10.3216 4.57568L11.0904 3.80684C11.1451 3.75215 11.1758 3.67798 11.1758 3.60064C11.1758 3.5233 11.1451 3.44912 11.0904 3.39443L10.6774 2.98201C10.6227 2.92733 10.5486 2.89662 10.4712 2.89662C10.3939 2.89662 10.3197 2.92733 10.265 2.98201L9.49735 3.75084H9.49677ZM11.5029 2.15718L11.9153 2.56959C12.1887 2.84307 12.3423 3.21394 12.3423 3.60064C12.3423 3.98733 12.1887 4.3582 11.9153 4.63168L4.74494 11.8026L2.28327 12.5143C2.18293 12.5432 2.07666 12.5447 1.97557 12.5185C1.87447 12.4923 1.78224 12.4395 1.70852 12.3656C1.6348 12.2916 1.58228 12.1992 1.55645 12.098C1.53063 11.9969 1.53243 11.8906 1.56169 11.7903L2.28969 9.30826L9.44136 2.15659C9.71483 1.8832 10.0857 1.72961 10.4724 1.72961C10.8591 1.72961 11.23 1.8832 11.5034 2.15659L11.5029 2.15718Z" fill="#404040"/>
</svg>
