<svg width="17" height="21" viewBox="0 0 17 21" fill="none" xmlns="http://www.w3.org/2000/svg">
<path d="M8.33335 20.0161C6.88986 18.8409 5.55187 17.5526 4.33336 16.1645C2.5048 14.0801 0.333375 10.9757 0.333375 8.01751C0.332582 6.50674 0.801383 5.0297 1.68045 3.77332C2.55952 2.51694 3.80933 1.5377 5.27173 0.959519C6.73412 0.38134 8.34335 0.230216 9.89577 0.525274C11.4482 0.820331 12.874 1.54831 13.9928 2.61707C14.7376 3.32483 15.328 4.16656 15.7298 5.09354C16.1315 6.02053 16.3367 7.01435 16.3333 8.01751C16.3333 10.9757 14.1619 14.0801 12.3333 16.1645C11.1148 17.5526 9.77685 18.8409 8.33335 20.0161ZM8.33335 4.74518C7.42404 4.74518 6.55197 5.08994 5.90899 5.70362C5.26601 6.3173 4.90479 7.14963 4.90479 8.01751C4.90479 8.88539 5.26601 9.71772 5.90899 10.3314C6.55197 10.9451 7.42404 11.2898 8.33335 11.2898C9.24267 11.2898 10.1147 10.9451 10.7577 10.3314C11.4007 9.71772 11.7619 8.88539 11.7619 8.01751C11.7619 7.14963 11.4007 6.3173 10.7577 5.70362C10.1147 5.08994 9.24267 4.74518 8.33335 4.74518Z" fill="#404040"/>
</svg>
