<svg width="20" height="20" viewBox="0 0 20 20" fill="none" xmlns="http://www.w3.org/2000/svg">
<g clip-path="url(#clip0_121_9708)">
<rect width="20" height="20" rx="10" fill="white" fill-opacity="0.8"/>
<path d="M11.084 14.4167L7.25065 10.5834C7.16732 10.5 7.10843 10.4097 7.07398 10.3125C7.03898 10.2153 7.02148 10.1111 7.02148 10C7.02148 9.88891 7.03898 9.78474 7.07398 9.68752C7.10843 9.5903 7.16732 9.50002 7.25065 9.41669L11.084 5.58335C11.2368 5.43058 11.4312 5.35419 11.6673 5.35419C11.9034 5.35419 12.0979 5.43058 12.2507 5.58335C12.4034 5.73613 12.4798 5.93058 12.4798 6.16669C12.4798 6.4028 12.4034 6.59724 12.2507 6.75002L9.00065 10L12.2507 13.25C12.4034 13.4028 12.4798 13.5972 12.4798 13.8334C12.4798 14.0695 12.4034 14.2639 12.2507 14.4167C12.0979 14.5695 11.9034 14.6459 11.6673 14.6459C11.4312 14.6459 11.2368 14.5695 11.084 14.4167Z" fill="#2C5D5A"/>
</g>
<defs>
<clipPath id="clip0_121_9708">
<rect width="20" height="20" fill="white"/>
</clipPath>
</defs>
</svg>
