<svg width="20" height="20" viewBox="0 0 20 20" fill="none" xmlns="http://www.w3.org/2000/svg">
<g clip-path="url(#clip0_121_9711)">
<rect x="20" y="20" width="20" height="20" rx="10" transform="rotate(180 20 20)" fill="white" fill-opacity="0.8"/>
<path d="M8.91602 5.58331L12.7493 9.41665C12.8327 9.49998 12.8916 9.59026 12.926 9.68748C12.961 9.7847 12.9785 9.88887 12.9785 9.99998C12.9785 10.1111 12.961 10.2153 12.926 10.3125C12.8916 10.4097 12.8327 10.5 12.7493 10.5833L8.91602 14.4166C8.76324 14.5694 8.56879 14.6458 8.33268 14.6458C8.09657 14.6458 7.90213 14.5694 7.74935 14.4166C7.59657 14.2639 7.52018 14.0694 7.52018 13.8333C7.52018 13.5972 7.59657 13.4028 7.74935 13.25L10.9993 9.99998L7.74935 6.74998C7.59657 6.5972 7.52018 6.40276 7.52018 6.16665C7.52018 5.93054 7.59657 5.73609 7.74935 5.58331C7.90213 5.43054 8.09657 5.35415 8.33268 5.35415C8.56879 5.35415 8.76324 5.43054 8.91602 5.58331Z" fill="#2C5D5A"/>
</g>
<defs>
<clipPath id="clip0_121_9711">
<rect width="20" height="20" fill="white" transform="matrix(-1 0 0 -1 20 20)"/>
</clipPath>
</defs>
</svg>
