<svg width="70" height="29" viewBox="0 0 70 29" fill="none" xmlns="http://www.w3.org/2000/svg">
<rect width="70" height="29" fill="#A8A8A8"/>
<path d="M24.481 20.216C23.881 20.216 23.335 20.144 22.843 20C22.363 19.856 21.949 19.64 21.601 19.352C21.253 19.064 20.983 18.698 20.791 18.254C20.599 17.81 20.503 17.288 20.503 16.688C20.503 16.016 20.605 15.47 20.809 15.05C21.013 14.618 21.259 14.216 21.547 13.844C21.823 13.496 22.045 13.19 22.213 12.926C22.393 12.65 22.483 12.362 22.483 12.062C22.483 11.786 22.405 11.582 22.249 11.45C22.093 11.306 21.901 11.234 21.673 11.234C21.325 11.234 21.067 11.354 20.899 11.594C20.743 11.822 20.641 12.164 20.593 12.62H19.279V9.974H20.737V11.252H20.827C20.959 10.832 21.169 10.502 21.457 10.262C21.757 10.022 22.135 9.902 22.591 9.902C23.083 9.902 23.479 10.058 23.779 10.37C24.079 10.682 24.229 11.102 24.229 11.63C24.229 12.086 24.139 12.5 23.959 12.872C23.791 13.232 23.569 13.646 23.293 14.114C23.101 14.438 22.933 14.756 22.789 15.068C22.657 15.38 22.591 15.764 22.591 16.22V16.778C22.591 17.378 22.753 17.834 23.077 18.146C23.413 18.458 23.869 18.614 24.445 18.614C25.021 18.614 25.471 18.458 25.795 18.146C26.131 17.834 26.299 17.378 26.299 16.778V15.392C26.299 14.84 26.203 14.414 26.011 14.114C25.831 13.814 25.531 13.664 25.111 13.664H24.769V12.17H25.201C25.561 12.17 25.855 12.068 26.083 11.864C26.311 11.648 26.425 11.3 26.425 10.82V9.758H28.351V10.676C28.351 11.216 28.189 11.672 27.865 12.044C27.553 12.404 27.103 12.632 26.515 12.728V12.836C27.127 13.028 27.589 13.406 27.901 13.97C28.225 14.522 28.387 15.248 28.387 16.148C28.387 17.408 28.063 18.404 27.415 19.136C26.779 19.856 25.801 20.216 24.481 20.216ZM26.4655 4.862H28.3015V8.354H26.4655V4.862ZM34.5611 20.216C33.9611 20.216 33.3971 20.132 32.8691 19.964C32.3531 19.784 31.9031 19.544 31.5191 19.244C31.1471 18.932 30.8531 18.56 30.6371 18.128C30.4211 17.696 30.3131 17.216 30.3131 16.688V15.788C30.3131 15.368 30.4091 15.044 30.6011 14.816C30.7931 14.576 31.1411 14.456 31.6451 14.456H33.6611V16.004H32.1671V16.544C32.1671 17.264 32.3891 17.792 32.8331 18.128C33.2891 18.452 33.8951 18.614 34.6511 18.614C35.4311 18.614 36.0311 18.374 36.4511 17.894C36.8831 17.414 37.0991 16.736 37.0991 15.86V14.312C37.0991 13.424 36.8591 12.734 36.3791 12.242C35.9111 11.75 35.2451 11.504 34.3811 11.504C33.6611 11.504 33.0431 11.654 32.5271 11.954C32.0231 12.254 31.6391 12.614 31.3751 13.034L30.1511 11.936C30.4991 11.36 31.0331 10.88 31.7531 10.496C32.4731 10.1 33.3791 9.902 34.4711 9.902C35.9591 9.902 37.1171 10.358 37.9451 11.27C38.7731 12.17 39.1871 13.43 39.1871 15.05C39.1871 15.842 39.0851 16.562 38.8811 17.21C38.6771 17.846 38.3771 18.386 37.9811 18.83C37.5851 19.274 37.0991 19.616 36.5231 19.856C35.9471 20.096 35.2931 20.216 34.5611 20.216ZM44.6517 20.216C43.6197 20.216 42.8217 19.886 42.2577 19.226C41.6937 18.554 41.4117 17.606 41.4117 16.382V10.118H43.3737V16.166C43.3737 16.934 43.5297 17.522 43.8417 17.93C44.1657 18.326 44.6817 18.524 45.3897 18.524C45.6537 18.524 45.9177 18.494 46.1817 18.434C46.4457 18.362 46.6797 18.254 46.8837 18.11C47.0997 17.966 47.2677 17.786 47.3877 17.57C47.5197 17.342 47.5857 17.078 47.5857 16.778V10.118H49.5477V18.398H50.5917V20H49.2957C48.7917 20 48.4137 19.856 48.1617 19.568C47.9097 19.268 47.7717 18.854 47.7477 18.326H47.6577C47.4537 18.878 47.0997 19.334 46.5957 19.694C46.1037 20.042 45.4557 20.216 44.6517 20.216Z" fill="white"/>
</svg>
