<svg width="16" height="10" viewBox="0 0 16 10" fill="none" xmlns="http://www.w3.org/2000/svg">
<path d="M7.99996 1.33333C9.22578 1.32926 10.4279 1.67119 11.468 2.31982C12.5082 2.96845 13.3442 3.89744 13.88 5C12.78 7.24667 10.5333 8.66667 7.99996 8.66667C5.46663 8.66667 3.21996 7.24667 2.11996 5C2.6557 3.89744 3.49171 2.96845 4.53188 2.31982C5.57204 1.67119 6.77414 1.32926 7.99996 1.33333ZM7.99996 0C4.66663 0 1.81996 2.07333 0.666626 5C1.81996 7.92667 4.66663 10 7.99996 10C11.3333 10 14.18 7.92667 15.3333 5C14.18 2.07333 11.3333 0 7.99996 0ZM7.99996 3.33333C8.44199 3.33333 8.86591 3.50893 9.17847 3.82149C9.49103 4.13405 9.66663 4.55797 9.66663 5C9.66663 5.44203 9.49103 5.86595 9.17847 6.17851C8.86591 6.49107 8.44199 6.66667 7.99996 6.66667C7.55793 6.66667 7.13401 6.49107 6.82145 6.17851C6.50889 5.86595 6.33329 5.44203 6.33329 5C6.33329 4.55797 6.50889 4.13405 6.82145 3.82149C7.13401 3.50893 7.55793 3.33333 7.99996 3.33333ZM7.99996 2C6.34663 2 4.99996 3.34667 4.99996 5C4.99996 6.65333 6.34663 8 7.99996 8C9.65329 8 11 6.65333 11 5C11 3.34667 9.65329 2 7.99996 2Z" fill="#404040"/>
</svg>
