<svg width="17" height="16" viewBox="0 0 17 16" fill="none" xmlns="http://www.w3.org/2000/svg">
<path d="M15.6636 15.6929C7.13263 15.7044 0.657635 9.45093 0.666635 1.37929C0.666635 0.851492 1.11464 0.421997 1.66663 0.421997H4.30663C4.80163 0.421997 5.22263 0.769411 5.29563 1.23708C5.46974 2.35859 5.81155 3.45046 6.31063 4.47929L6.41363 4.69118C6.48282 4.83376 6.4977 4.99492 6.45572 5.14685C6.41373 5.29879 6.3175 5.43198 6.18363 5.52344C5.36563 6.08083 5.05363 7.20229 5.69063 8.07655C6.49262 9.17732 7.49357 10.133 8.64663 10.8988C9.56363 11.5058 10.7386 11.208 11.3216 10.4283C11.4174 10.3001 11.557 10.2079 11.7164 10.1677C11.8759 10.1274 12.045 10.1416 12.1946 10.2078L12.4156 10.3051C13.4936 10.7824 14.6376 11.1088 15.8126 11.2749C16.3026 11.3445 16.6666 11.7463 16.6666 12.2197V14.7385C16.6666 14.8639 16.6407 14.9881 16.5904 15.104C16.5401 15.2198 16.4663 15.3251 16.3734 15.4137C16.2804 15.5024 16.1701 15.5726 16.0486 15.6205C15.9272 15.6685 15.797 15.693 15.6656 15.6929H15.6636Z" fill="#404040"/>
</svg>
