<svg width="11" height="11" viewBox="0 0 11 11" fill="none" xmlns="http://www.w3.org/2000/svg">
<path d="M11 5.5C11 8.53757 8.53757 11 5.5 11C2.46243 11 0 8.53757 0 5.5C0 2.46243 2.46243 0 5.5 0C8.53757 0 11 2.46243 11 5.5Z" fill="black"/>
<path d="M5.66992 8.48242L6.29492 8.59473V9H4.24414V8.59473L4.87891 8.48242V4.92773L4.24414 4.81543V4.41016L5.66992 4.05371V8.48242ZM4.84961 2.56445C4.79753 2.50586 4.75521 2.44076 4.72266 2.36914C4.6901 2.29753 4.67383 2.22754 4.67383 2.15918C4.67383 2.08757 4.6901 2.01758 4.72266 1.94922C4.75521 1.8776 4.79753 1.8125 4.84961 1.75391C4.97005 1.6237 5.0791 1.55859 5.17676 1.55859C5.27767 1.55859 5.3623 1.5765 5.43066 1.6123C5.50228 1.64811 5.56576 1.69531 5.62109 1.75391C5.74154 1.88737 5.80176 2.00618 5.80176 2.11035C5.80176 2.21126 5.78385 2.29753 5.74805 2.36914C5.71549 2.44076 5.67318 2.50586 5.62109 2.56445C5.4974 2.69141 5.38346 2.75488 5.2793 2.75488C5.17839 2.75488 5.09538 2.73698 5.03027 2.70117C4.96517 2.66536 4.90495 2.61979 4.84961 2.56445Z" fill="white"/>
</svg>
