<svg width="12" height="12" viewBox="0 0 12 12" fill="none" xmlns="http://www.w3.org/2000/svg">
<path d="M5.99984 0.166626C6.77339 0.166626 7.51525 0.473917 8.06223 1.0209C8.60921 1.56788 8.9165 2.30974 8.9165 3.08329C8.9165 3.85684 8.60921 4.59871 8.06223 5.14569C7.51525 5.69267 6.77339 5.99996 5.99984 5.99996C5.22629 5.99996 4.48442 5.69267 3.93744 5.14569C3.39046 4.59871 3.08317 3.85684 3.08317 3.08329C3.08317 2.30974 3.39046 1.56788 3.93744 1.0209C4.48442 0.473917 5.22629 0.166626 5.99984 0.166626ZM5.99984 7.45829C9.22275 7.45829 11.8332 8.7635 11.8332 10.375V11.8333H0.166504V10.375C0.166504 8.7635 2.77692 7.45829 5.99984 7.45829Z" fill="white"/>
</svg>
