<svg width="13" height="12" viewBox="0 0 13 12" fill="none" xmlns="http://www.w3.org/2000/svg">
<path d="M11.1143 9.44714V10.0029H1.11144V9.44714L2.22287 8.33571V5.00143C2.22287 3.27871 3.35097 1.76161 5.00144 1.27259V1.11143C5.00144 0.816659 5.11854 0.533963 5.32697 0.32553C5.5354 0.117097 5.8181 0 6.11287 0C6.40764 0 6.69033 0.117097 6.89877 0.32553C7.1072 0.533963 7.2243 0.816659 7.2243 1.11143V1.27259C8.87477 1.76161 10.0029 3.27871 10.0029 5.00143V8.33571L11.1143 9.44714ZM7.2243 10.5586C7.2243 10.8533 7.1072 11.136 6.89877 11.3445C6.69033 11.5529 6.40764 11.67 6.11287 11.67C5.8181 11.67 5.5354 11.5529 5.32697 11.3445C5.11854 11.136 5.00144 10.8533 5.00144 10.5586M10.4197 0.6613L9.63054 1.45041C10.1005 1.91467 10.4737 2.46761 10.7284 3.07717C10.9831 3.68673 11.1143 4.34079 11.1143 5.00143H12.2257C12.2257 3.37319 11.5811 1.80607 10.4197 0.6613ZM1.05564e-05 5.00143H1.11144C1.11144 3.66771 1.64492 2.38957 2.5952 1.45041L1.80608 0.6613C1.23252 1.229 0.777494 1.90503 0.467445 2.6501C0.157397 3.39517 -0.00149189 4.19442 1.05564e-05 5.00143Z" fill="white"/>
</svg>
