<svg width="20" height="20" viewBox="0 0 20 20" fill="none" xmlns="http://www.w3.org/2000/svg">
<path d="M15.8305 16.6667C8.72135 16.6767 3.32552 11.2167 3.33302 4.16921C3.33302 3.70837 3.70635 3.33337 4.16635 3.33337H6.36635C6.77885 3.33337 7.12968 3.63671 7.19052 4.04504C7.3356 5.02425 7.62045 5.97758 8.03635 6.87587L8.12218 7.06087C8.17984 7.18537 8.19224 7.32608 8.15725 7.45873C8.12226 7.59139 8.04207 7.70768 7.93052 7.78754C7.24885 8.27421 6.98885 9.25337 7.51968 10.0167C8.188 10.9778 9.02214 11.8122 9.98302 12.4809C10.7472 13.0109 11.7263 12.7509 12.2122 12.07C12.292 11.9581 12.4083 11.8777 12.5412 11.8425C12.674 11.8074 12.815 11.8197 12.9397 11.8775L13.1238 11.9625C14.0222 12.3792 14.9755 12.6642 15.9547 12.8092C16.363 12.87 16.6663 13.2209 16.6663 13.6342V15.8334C16.6663 15.9429 16.6448 16.0513 16.6028 16.1525C16.5609 16.2536 16.4994 16.3455 16.422 16.4229C16.3445 16.5003 16.2525 16.5617 16.1513 16.6035C16.0501 16.6453 15.9417 16.6668 15.8322 16.6667H15.8305Z" fill="white"/>
</svg>
