<svg width="13" height="12" viewBox="0 0 13 12" fill="none" xmlns="http://www.w3.org/2000/svg">
<g clip-path="url(#clip0_80_429)">
<path d="M4.41262 0H9.45262C11.3726 0 12.9326 1.56 12.9326 3.48V8.52C12.9326 9.44295 12.566 10.3281 11.9133 10.9807C11.2607 11.6334 10.3756 12 9.45262 12H4.41262C2.49262 12 0.932617 10.44 0.932617 8.52V3.48C0.932617 2.55705 1.29926 1.6719 1.95189 1.01927C2.60451 0.366642 3.48966 0 4.41262 0M4.29262 1.2C3.71975 1.2 3.17035 1.42757 2.76527 1.83265C2.36019 2.23773 2.13262 2.78713 2.13262 3.36V8.64C2.13262 9.834 3.09862 10.8 4.29262 10.8H9.57262C10.1455 10.8 10.6949 10.5724 11.1 10.1674C11.505 9.76227 11.7326 9.21287 11.7326 8.64V3.36C11.7326 2.166 10.7666 1.2 9.57262 1.2H4.29262ZM10.0826 2.1C10.2815 2.1 10.4723 2.17902 10.6129 2.31967C10.7536 2.46032 10.8326 2.65109 10.8326 2.85C10.8326 3.04891 10.7536 3.23968 10.6129 3.38033C10.4723 3.52098 10.2815 3.6 10.0826 3.6C9.88371 3.6 9.69294 3.52098 9.55229 3.38033C9.41163 3.23968 9.33262 3.04891 9.33262 2.85C9.33262 2.65109 9.41163 2.46032 9.55229 2.31967C9.69294 2.17902 9.88371 2.1 10.0826 2.1ZM6.93262 3C7.72827 3 8.49133 3.31607 9.05394 3.87868C9.61655 4.44129 9.93262 5.20435 9.93262 6C9.93262 6.79565 9.61655 7.55871 9.05394 8.12132C8.49133 8.68393 7.72827 9 6.93262 9C6.13697 9 5.37391 8.68393 4.8113 8.12132C4.24869 7.55871 3.93262 6.79565 3.93262 6C3.93262 5.20435 4.24869 4.44129 4.8113 3.87868C5.37391 3.31607 6.13697 3 6.93262 3M6.93262 4.2C6.45523 4.2 5.99739 4.38964 5.65982 4.72721C5.32226 5.06477 5.13262 5.52261 5.13262 6C5.13262 6.47739 5.32226 6.93523 5.65982 7.27279C5.99739 7.61036 6.45523 7.8 6.93262 7.8C7.41001 7.8 7.86784 7.61036 8.20541 7.27279C8.54298 6.93523 8.73262 6.47739 8.73262 6C8.73262 5.52261 8.54298 5.06477 8.20541 4.72721C7.86784 4.38964 7.41001 4.2 6.93262 4.2Z" fill="white"/>
</g>
<defs>
<clipPath id="clip0_80_429">
<rect width="12" height="12" fill="white" transform="translate(0.932617)"/>
</clipPath>
</defs>
</svg>
