<svg width="13" height="12" viewBox="0 0 13 12" fill="none" xmlns="http://www.w3.org/2000/svg">
<path d="M3.3084 1.33393C3.30824 1.68753 3.17541 2.02658 2.93915 2.27649C2.70289 2.5264 2.38255 2.6667 2.04859 2.66652C1.71464 2.66634 1.39442 2.5257 1.1584 2.27554C0.922375 2.02539 0.789872 1.6862 0.790039 1.33259C0.790206 0.97899 0.92303 0.639941 1.15929 0.390031C1.39555 0.140122 1.71589 -0.000176634 2.04985 1.66898e-07C2.38381 0.000176968 2.70402 0.140814 2.94004 0.390974C3.17607 0.641134 3.30857 0.980324 3.3084 1.33393ZM3.34618 3.6538H0.827815V12H3.34618V3.6538ZM7.32519 3.6538H4.81942V12H7.30001V7.62024C7.30001 5.18038 10.3032 4.95373 10.3032 7.62024V12H12.79V6.71363C12.79 2.60052 8.34513 2.75385 7.30001 4.77374L7.32519 3.6538Z" fill="white"/>
</svg>
