<svg width="14" height="12" viewBox="0 0 14 12" fill="none" xmlns="http://www.w3.org/2000/svg">
<path d="M7.15453 0C10.6266 0 13.4516 2.29215 13.4516 5.1101C13.4516 6.23807 13.0148 7.25348 12.1017 8.25393C10.7809 9.77469 7.82675 11.6268 7.15453 11.9102C6.50121 12.1857 6.57677 11.7551 6.60668 11.5851L6.60904 11.5709L6.69878 11.0317C6.72003 10.8712 6.74207 10.6216 6.67831 10.4626C6.60747 10.2871 6.32882 10.1958 6.12417 10.1517C3.09762 9.75265 0.857422 7.63603 0.857422 5.1101C0.857422 2.29215 3.68325 0 7.15453 0ZM4.81043 6.04995H3.61005V3.87115C3.61005 3.83872 3.59722 3.8076 3.57436 3.7846C3.5515 3.76159 3.52047 3.74856 3.48804 3.74835H3.04567C3.02954 3.74835 3.01357 3.75153 2.99868 3.7577C2.98378 3.76387 2.97024 3.77292 2.95884 3.78432C2.94744 3.79572 2.93839 3.80926 2.93222 3.82416C2.92605 3.83905 2.92287 3.85502 2.92287 3.87115V6.61511C2.92287 6.64738 2.93625 6.67808 2.95751 6.69934L2.95908 6.7017L2.96066 6.70327C2.98348 6.72523 3.014 6.73737 3.04567 6.73712H4.81043C4.87813 6.73712 4.93244 6.68202 4.93244 6.61432V6.17353C4.93254 6.1574 4.92947 6.14141 4.92339 6.12648C4.91732 6.11154 4.90836 6.09794 4.89703 6.08647C4.8857 6.07499 4.87222 6.06586 4.85736 6.05959C4.8425 6.05333 4.82656 6.05005 4.81043 6.04995ZM5.43306 3.74835C5.40049 3.74835 5.36926 3.76129 5.34623 3.78432C5.3232 3.80735 5.31026 3.83858 5.31026 3.87115V6.61511C5.31026 6.68281 5.36536 6.73712 5.43306 6.73712H5.87543C5.94312 6.73712 5.99744 6.68202 5.99744 6.61511V3.87115C5.99744 3.83872 5.98461 3.8076 5.96175 3.7846C5.93889 3.76159 5.90786 3.74856 5.87543 3.74835H5.43306ZM8.47377 3.74835C8.44121 3.74835 8.40997 3.76129 8.38695 3.78432C8.36392 3.80735 8.35098 3.83858 8.35098 3.87115V5.50052L7.09392 3.80345C7.09074 3.79932 7.08733 3.79538 7.08369 3.79165C7.0812 3.78889 7.07857 3.78548 7.07582 3.78299L7.07346 3.78063C7.07076 3.77804 7.06786 3.77568 7.0648 3.77354L7.06007 3.77039L7.05771 3.76882C7.05648 3.7679 7.05516 3.76711 7.05378 3.76646L7.04748 3.76252H7.04591L7.04354 3.76095L7.03567 3.7578L7.03252 3.75622C7.02995 3.75529 7.02732 3.7545 7.02465 3.75386H7.02308L7.02072 3.75308L7.01363 3.7515H7.00891L7.00655 3.75071H7.0034L7.00183 3.74993H6.55001C6.51758 3.74993 6.48646 3.76276 6.46346 3.78561C6.44045 3.80847 6.42742 3.8395 6.42721 3.87193V6.6159C6.42721 6.68359 6.48231 6.73791 6.55001 6.73791H6.99081C7.05929 6.73791 7.11439 6.68281 7.11439 6.6159V4.98652L8.37381 6.68674C8.38218 6.69846 8.39258 6.70859 8.40451 6.71665L8.40529 6.71744L8.41316 6.72216L8.41631 6.72374C8.41834 6.72493 8.42044 6.72598 8.42261 6.72689L8.42812 6.72925L8.43206 6.73082C8.43465 6.73169 8.43728 6.73248 8.43993 6.73318H8.44229C8.45253 6.73613 8.46312 6.73771 8.47377 6.73791H8.91457C8.98305 6.73791 9.03815 6.68281 9.03815 6.6159V3.87115C9.03815 3.83858 9.02522 3.80735 9.00219 3.78432C8.97916 3.76129 8.94793 3.74835 8.91536 3.74835H8.47377ZM11.4767 4.31273V3.87193C11.4768 3.85581 11.4737 3.83982 11.4677 3.82488C11.4616 3.80995 11.4526 3.79635 11.4413 3.78487C11.43 3.7734 11.4165 3.76427 11.4016 3.758C11.3868 3.75174 11.3708 3.74846 11.3547 3.74835H9.58994C9.55817 3.74839 9.52767 3.76082 9.50493 3.78299L9.50335 3.78456L9.50178 3.78692C9.4798 3.80948 9.46739 3.83965 9.46714 3.87115V6.61511C9.46714 6.64738 9.48053 6.67808 9.50178 6.69934L9.50335 6.7017L9.50493 6.70327C9.5278 6.72515 9.55828 6.73729 9.58994 6.73712H11.3547C11.4224 6.73712 11.4767 6.68202 11.4767 6.61432V6.17353C11.4768 6.1574 11.4737 6.14141 11.4677 6.12648C11.4616 6.11154 11.4526 6.09794 11.4413 6.08647C11.43 6.07499 11.4165 6.06586 11.4016 6.05959C11.3868 6.05333 11.3708 6.05005 11.3547 6.04995H10.1535V5.58632H11.3539C11.4216 5.58632 11.4759 5.53122 11.4759 5.46353V5.02273C11.476 5.00661 11.473 4.99062 11.4669 4.97568C11.4608 4.96074 11.4518 4.94715 11.4405 4.93567C11.4292 4.9242 11.4157 4.91506 11.4008 4.9088C11.386 4.90253 11.37 4.89925 11.3539 4.89915H10.1535V4.43553H11.3539C11.4216 4.43553 11.4767 4.38043 11.4767 4.31273Z" fill="white"/>
</svg>
