<svg width="70" height="29" viewBox="0 0 70 29" fill="none" xmlns="http://www.w3.org/2000/svg">
<rect width="70" height="29" fill="#2C5D5A"/>
<path d="M34.5075 19.216C33.1395 19.216 32.0775 18.76 31.3215 17.848C30.5655 16.924 30.1875 15.658 30.1875 14.05C30.1875 13.27 30.2955 12.562 30.5115 11.926C30.7395 11.29 31.0575 10.75 31.4655 10.306C31.8855 9.85 32.3895 9.502 32.9775 9.262C33.5655 9.022 34.2255 8.902 34.9575 8.902C35.6295 8.902 36.2415 9.004 36.7935 9.208C37.3455 9.4 37.8135 9.676 38.1975 10.036C38.5935 10.396 38.8935 10.834 39.0975 11.35C39.3135 11.854 39.4215 12.418 39.4215 13.042V19H37.4595V13.204C37.4595 12.352 37.2315 11.692 36.7755 11.224C36.3195 10.744 35.6955 10.504 34.9035 10.504C34.0755 10.504 33.4275 10.762 32.9595 11.278C32.5035 11.794 32.2755 12.496 32.2755 13.384V14.698C32.2755 15.646 32.4795 16.372 32.8875 16.876C33.3075 17.368 33.9435 17.614 34.7955 17.614C35.0595 17.614 35.3055 17.59 35.5335 17.542L35.7675 19.09C35.5875 19.138 35.3715 19.168 35.1195 19.18C34.8795 19.204 34.6755 19.216 34.5075 19.216ZM36.7297 25.354C35.8417 25.354 35.1937 25.144 34.7857 24.724C34.3657 24.316 34.1557 23.788 34.1557 23.14V22.348H32.9857V20.962H34.4437C34.8997 20.962 35.2297 21.058 35.4337 21.25C35.6377 21.442 35.7397 21.7 35.7397 22.024V22.798C35.7397 23.182 35.8177 23.476 35.9737 23.68C36.1297 23.884 36.3817 23.986 36.7297 23.986C37.0777 23.986 37.3297 23.884 37.4857 23.68C37.6417 23.476 37.7197 23.182 37.7197 22.798V20.962H39.4297V22.834C39.4297 23.566 39.2137 24.166 38.7817 24.634C38.3377 25.114 37.6537 25.354 36.7297 25.354Z" fill="white"/>
</svg>
